<svg id="Capa_1" enable-background="new 0 0 511.987 511.987" height="512" viewBox="0 0 511.987 511.987" width="512" xmlns="http://www.w3.org/2000/svg"><g><g><path d="m365.388 236.592-30-30c-5.859-5.859-5.859-15.352 0-21.211s15.352-5.859 21.211 0l30 30c5.859 5.859 5.859 15.352 0 21.211s-15.352 5.86-21.211 0z" fill="#ff9100"/></g><g><path d="m360.993 364.64-12.449 25.384-17.551-36.509c-14.112-7.683-24.093-19.726-28.345-44.863h-46.655-46.655c-4.252 25.137-14.233 37.18-28.345 44.863l-15.749 35.841-14.251-24.716c-56.398 16.842-90 40.862-90 132.347 0 8.291 6.709 15 15 15h45l30-30h105 105l30 30h45c8.291 0 15-6.709 15-15 0-91.983-34.162-115.672-90-132.347z" fill="#ffccb3"/><path d="m390.993 511.987h45c8.291 0 15-6.709 15-15 0-91.983-34.162-115.671-90-132.347l-12.449 25.384-17.551-36.509c-14.112-7.683-24.093-19.726-28.345-44.863h-46.655v173.335h105z" fill="#fb9"/><path d="m150.993 364.64v87.347h30v-98.472c-8.58 4.67-18.691 7.75-30 11.125z" fill="#ff8fb8"/><path d="m330.993 353.514v98.472h30v-87.346c-11.308-3.375-21.419-6.455-30-11.126z" fill="#ff5f96"/><path d="m315.993 421.987c-24.65 0-46.328 12.05-60 30.41-13.672-18.36-35.35-30.41-60-30.41-41.422 0-75 33.578-75 75v15h135 135v-15c0-41.423-33.578-75-75-75z" fill="#ff8fb8"/><path d="m390.993 496.987c0-41.422-33.578-75-75-75-24.65 0-46.328 12.05-60 30.41v59.59h135z" fill="#ff5f96"/></g><path d="m330.993 120.987h-75-105v105c0 57.99 47.01 106 105 106s105-48.01 105-106v-45z" fill="#fdc"/><path d="m360.993 225.987v-45l-30-60h-75v211c57.99 0 105-48.011 105-106z" fill="#ffccb3"/><path d="m298.62 31.056c-6.216-17.172-23.914-25.021-42.627-28.569-83.36-15.813-165 45.576-165 133.5v90c0 8.291 6.709 15 15 15s15-6.709 15-15c0-27.012 12.759-45 75-45h30c10.726 0 20.764-2.606 30-6.68 11.867-5.235 22.299-13.118 30-23.364 13.696 18.223 35.493 30.044 60 30.044h15v-75c0-37.046-27.011-68.911-62.373-74.931z" fill="#ffb64c"/><path d="m285.993 150.943c13.696 18.223 35.493 30.044 60 30.044h15v-75c0-37.046-27.012-68.91-62.373-74.931-6.216-17.172-23.914-25.021-42.627-28.569v171.82c11.867-5.235 22.299-13.118 30-23.364z" fill="#ff9100"/></g></svg>